<svg xmlns="http://www.w3.org/2000/svg" viewBox="0 0 1920 1080">
<!-- Migrated from bfc79ff. Edit this artwork, not the exporter. -->
<!-- Sign outlines: Noto Sans CJK JP Bold, SIL OFL 1.1; see noto-sans-cjk-OFL.txt. Font SHA-256: faa5f3656a78b2e2d450d27fe8382c778bc2b6bb5ea29c986664a6a435056ceb. One em, baseline y down. -->
<g id="near-house-shell" data-name="near-house-shell">
<rect id="near-house-shell-1" x="-80" y="250" width="620" height="830" fill="rgb(0.8999999612569809%,2.8000000864267349%,2.3000000044703484%)" fill-opacity="1"/>
</g>
<g id="near-house-roof" data-name="near-house-roof">
<defs><linearGradient id="near-house-roof-gradient-1" gradientUnits="userSpaceOnUse" x1="0" y1="132" x2="0" y2="273">
<stop offset="0" stop-color="rgb(3.9999999105930328%,17.000000178813934%,12.700000405311584%)" stop-opacity="1"/>
<stop offset="1" stop-color="rgb(1.3000000268220901%,5.000000074505806%,3.9000000804662704%)" stop-opacity="1"/>
</linearGradient></defs>
<path id="near-house-roof-2" d="M -144 262 C -86.400000000000006 229.5 2.2250000000000085 158 69.5 132 L 390.5 132 C 457.77499999999998 158 546.39999999999998 229.5 604 262 L 604 273 L -144 273 Z " fill="url(#near-house-roof-gradient-1)" fill-rule="nonzero"/>
<path id="near-house-roof-3" d="M 68.951315789473682 136.22999999999999 L -130.87719298245614 273 M 74.807631578947365 136.22999999999999 L -117.75438596491227 273 M 80.663947368421049 136.22999999999999 L -104.63157894736842 273 M 86.520263157894732 136.22999999999999 L -91.508771929824562 273 M 92.376578947368429 136.22999999999999 L -78.385964912280699 273 M 98.232894736842098 136.22999999999999 L -65.26315789473685 273 M 104.08921052631578 136.22999999999999 L -52.140350877192986 273 M 109.94552631578948 136.22999999999999 L -39.017543859649123 273 M 115.80184210526315 136.22999999999999 L -25.894736842105274 273 M 121.65815789473683 136.22999999999999 L -12.771929824561397 273 M 127.51447368421053 136.22999999999999 L 0.35087719298243769 273 M 133.3707894736842 136.22999999999999 L 13.473684210526301 273 M 139.22710526315791 136.22999999999999 L 26.596491228070164 273 M 145.08342105263156 136.22999999999999 L 39.719298245614027 273 M 150.93973684210525 136.22999999999999 L 52.84210526315789 273 M 156.79605263157896 136.22999999999999 L 65.964912280701753 273 M 162.65236842105261 136.22999999999999 L 79.087719298245588 273 M 168.5086842105263 136.22999999999999 L 92.210526315789451 273 M 174.36500000000001 136.22999999999999 L 105.33333333333331 273 M 180.22131578947366 136.22999999999999 L 118.45614035087721 273 M 186.07763157894735 136.22999999999999 L 131.57894736842104 273 M 191.93394736842106 136.22999999999999 L 144.70175438596488 273 M 197.79026315789471 136.22999999999999 L 157.82456140350877 273 M 203.64657894736843 136.22999999999999 L 170.9473684210526 273 M 209.50289473684211 136.22999999999999 L 184.07017543859649 273 M 215.35921052631576 136.22999999999999 L 197.19298245614033 273 M 221.21552631578948 136.22999999999999 L 210.31578947368416 273 M 227.07184210526316 136.22999999999999 L 223.43859649122805 273 M 232.92815789473684 136.22999999999999 L 236.56140350877195 273 M 238.78447368421052 136.22999999999999 L 249.68421052631578 273 M 244.64078947368424 136.22999999999999 L 262.80701754385967 273 M 250.49710526315786 136.22999999999999 L 275.92982456140351 273 M 256.35342105263157 136.22999999999999 L 289.0526315789474 273 M 262.20973684210526 136.22999999999999 L 302.17543859649118 273 M 268.06605263157894 136.22999999999999 L 315.29824561403512 273 M 273.92236842105257 136.22999999999999 L 328.4210526315789 273 M 279.77868421052631 136.22999999999999 L 341.54385964912279 273 M 285.63499999999999 136.22999999999999 L 354.66666666666663 273 M 291.49131578947367 136.22999999999999 L 367.78947368421052 273 M 297.34763157894736 136.22999999999999 L 380.91228070175441 273 M 303.20394736842104 136.22999999999999 L 394.0350877192983 273 M 309.06026315789472 136.22999999999999 L 407.15789473684208 273 M 314.91657894736841 136.22999999999999 L 420.28070175438597 273 M 320.77289473684209 136.22999999999999 L 433.40350877192975 273 M 326.62921052631577 136.22999999999999 L 446.52631578947364 273 M 332.48552631578946 136.22999999999999 L 459.64912280701753 273 M 338.34184210526314 136.22999999999999 L 472.77192982456143 273 M 344.19815789473682 136.22999999999999 L 485.8947368421052 273 M 350.05447368421056 136.22999999999999 L 499.01754385964909 273 M 355.91078947368419 136.22999999999999 L 512.14035087719299 273 M 361.76710526315787 136.22999999999999 L 525.26315789473688 273 M 367.62342105263156 136.22999999999999 L 538.38596491228066 273 M 373.47973684210524 136.22999999999999 L 551.50877192982455 273 M 379.33605263157892 136.22999999999999 L 564.63157894736833 273 M 385.19236842105266 136.22999999999999 L 577.75438596491233 273 M 391.04868421052629 136.22999999999999 L 590.87719298245611 273 " fill="none" stroke="rgb(36.000001430511475%,72.000002861022949%,56.000000238418579%)" stroke-opacity="0.10000000000000001" stroke-width="1" stroke-linecap="round" stroke-linejoin="round"/>
<path id="near-house-roof-4" d="M 63.5 129 L 396.5 129 C 457.77499999999998 158 546.39999999999998 229.5 604 262 " fill="none" stroke="rgb(36.000001430511475%,72.000002861022949%,56.000000238418579%)" stroke-opacity="0.55000000000000004" stroke-width="1.6000000000000001" stroke-linecap="round" stroke-linejoin="round"/>
<path id="near-house-roof-5" d="M 61.5 132 L 398.5 132 " fill="none" stroke="rgb(1.3000000268220901%,5.000000074505806%,3.9000000804662704%)" stroke-opacity="1" stroke-width="6" stroke-linecap="round" stroke-linejoin="round"/>
</g>
<g id="near-house-eaves" data-name="near-house-eaves">
<path id="near-house-eaves-1" d="M -80 556 L 636 580 L 640 596 L -80 596 Z " fill="rgb(1.3000000268220901%,5.000000074505806%,3.9000000804662704%)" fill-opacity="1" fill-rule="nonzero"/>
<path id="near-house-eaves-2" d="M -80 556 L 636 580 " fill="none" stroke="rgb(36.000001430511475%,72.000002861022949%,56.000000238418579%)" stroke-opacity="0.45000000000000001" stroke-width="1.5" stroke-linecap="round" stroke-linejoin="round"/>
<path id="near-house-eaves-3" d="M -50 559.11000000000001 L -46 596 M -35 559.66499999999996 L -31 596 M -20 560.22000000000003 L -16 596 M -5 560.77499999999998 L -1 596 M 10 561.33000000000004 L 14 596 M 25 561.88499999999999 L 29 596 M 40 562.44000000000005 L 44 596 M 55 562.995 L 59 596 M 70 563.54999999999995 L 74 596 M 85 564.10500000000002 L 89 596 M 100 564.65999999999997 L 104 596 M 115 565.21500000000003 L 119 596 M 130 565.76999999999998 L 134 596 M 145 566.32500000000005 L 149 596 M 160 566.88 L 164 596 M 175 567.43499999999995 L 179 596 M 190 567.99000000000001 L 194 596 M 205 568.54499999999996 L 209 596 M 220 569.10000000000002 L 224 596 M 235 569.65499999999997 L 239 596 M 250 570.21000000000004 L 254 596 M 265 570.76499999999999 L 269 596 M 280 571.32000000000005 L 284 596 M 295 571.875 L 299 596 M 310 572.42999999999995 L 314 596 M 325 572.98500000000001 L 329 596 M 340 573.53999999999996 L 344 596 M 355 574.09500000000003 L 359 596 M 370 574.64999999999998 L 374 596 M 385 575.20500000000004 L 389 596 M 400 575.75999999999999 L 404 596 M 415 576.31500000000005 L 419 596 M 430 576.87 L 434 596 M 445 577.42499999999995 L 449 596 M 460 577.98000000000002 L 464 596 M 475 578.53499999999997 L 479 596 M 490 579.09000000000003 L 494 596 M 505 579.64499999999998 L 509 596 M 520 580.20000000000005 L 524 596 M 535 580.755 L 539 596 M 550 581.30999999999995 L 554 596 M 565 581.86500000000001 L 569 596 M 580 582.41999999999996 L 584 596 M 595 582.97500000000002 L 599 596 M 610 583.52999999999997 L 614 596 M 625 584.08500000000004 L 629 596 " fill="none" stroke="rgb(36.000001430511475%,72.000002861022949%,56.000000238418579%)" stroke-opacity="0.070000000000000007" stroke-width="1" stroke-linecap="round" stroke-linejoin="round"/>
<path id="near-house-eaves-4" d="M 540 276 L 540 578 " fill="none" stroke="rgb(36.000001430511475%,72.000002861022949%,56.000000238418579%)" stroke-opacity="0.28000000000000003" stroke-width="1.3999999999999999" stroke-linecap="round" stroke-linejoin="round"/>
</g>
<g id="right-house-2-shell" data-name="right-house-2-shell">
<rect id="right-house-2-shell-1" x="1262" y="690" width="252" height="250" fill="rgb(2.199999988079071%,8.7999999523162842%,6.849999725818634%)" fill-opacity="1"/>
</g>
<g id="right-house-2-roof" data-name="right-house-2-roof">
<defs><linearGradient id="right-house-2-roof-gradient-1" gradientUnits="userSpaceOnUse" x1="0" y1="628" x2="0" y2="697">
<stop offset="0" stop-color="rgb(7.0000000298023224%,28.100001811981201%,20.800000429153442%)" stop-opacity="1"/>
<stop offset="1" stop-color="rgb(2.4000000208616257%,10.500000417232513%,7.9499997198581696%)" stop-opacity="1"/>
</linearGradient></defs>
<path id="right-house-2-roof-2" d="M 1240 690 C 1259.8 674.5 1301.2149999999999 640.39999999999998 1333.3 628 L 1440.7 628 C 1472.7850000000001 640.39999999999998 1514.2 674.5 1534 690 L 1534 697 L 1240 697 Z " fill="url(#right-house-2-roof-gradient-1)" fill-rule="nonzero"/>
<path id="right-house-2-roof-3" d="M 1335.6372727272728 630.07000000000005 L 1253.3636363636363 697 M 1340.7735454545455 630.07000000000005 L 1266.7272727272727 697 M 1345.9098181818183 630.07000000000005 L 1280.090909090909 697 M 1351.0460909090909 630.07000000000005 L 1293.4545454545455 697 M 1356.1823636363636 630.07000000000005 L 1306.8181818181818 697 M 1361.3186363636362 630.07000000000005 L 1320.1818181818182 697 M 1366.454909090909 630.07000000000005 L 1333.5454545454545 697 M 1371.5911818181817 630.07000000000005 L 1346.909090909091 697 M 1376.7274545454545 630.07000000000005 L 1360.2727272727273 697 M 1381.8637272727271 630.07000000000005 L 1373.6363636363635 697 M 1387 630.07000000000005 L 1387 697 M 1392.1362727272726 630.07000000000005 L 1400.3636363636363 697 M 1397.2725454545455 630.07000000000005 L 1413.7272727272727 697 M 1402.4088181818181 630.07000000000005 L 1427.090909090909 697 M 1407.545090909091 630.07000000000005 L 1440.4545454545455 697 M 1412.6813636363636 630.07000000000005 L 1453.8181818181818 697 M 1417.8176363636364 630.07000000000005 L 1467.1818181818182 697 M 1422.9539090909091 630.07000000000005 L 1480.5454545454545 697 M 1428.0901818181817 630.07000000000005 L 1493.909090909091 697 M 1433.2264545454545 630.07000000000005 L 1507.2727272727273 697 M 1438.3627272727272 630.07000000000005 L 1520.6363636363635 697 " fill="none" stroke="rgb(36.000001430511475%,72.000002861022949%,56.000000238418579%)" stroke-opacity="0.10000000000000001" stroke-width="1" stroke-linecap="round" stroke-linejoin="round"/>
<path id="right-house-2-roof-4" d="M 1327.3 625 L 1446.7 625 C 1472.7850000000001 640.39999999999998 1514.2 674.5 1534 690 " fill="none" stroke="rgb(36.000001430511475%,72.000002861022949%,56.000000238418579%)" stroke-opacity="0.55000000000000004" stroke-width="1.6000000000000001" stroke-linecap="round" stroke-linejoin="round"/>
<path id="right-house-2-roof-5" d="M 1325.3 628 L 1448.7 628 " fill="none" stroke="rgb(2.4000000208616257%,10.500000417232513%,7.9499997198581696%)" stroke-opacity="1" stroke-width="6" stroke-linecap="round" stroke-linejoin="round"/>
</g>
<g id="right-house-2-eaves" data-name="right-house-2-eaves">
</g>
<g id="right-house-3-shell" data-name="right-house-3-shell">
<rect id="right-house-3-shell-1" x="1512" y="600" width="470" height="340" fill="rgb(1.4000000432133675%,4.6000000089406967%,3.7000000476837158%)" fill-opacity="1"/>
</g>
<g id="right-house-3-roof" data-name="right-house-3-roof">
<defs><linearGradient id="right-house-3-roof-gradient-1" gradientUnits="userSpaceOnUse" x1="0" y1="512" x2="0" y2="609">
<stop offset="0" stop-color="rgb(5.000000074505806%,21.500000357627869%,15.999999642372131%)" stop-opacity="1"/>
<stop offset="1" stop-color="rgb(1.7999999225139618%,7.0000000298023224%,5.4000001400709152%)" stop-opacity="1"/>
</linearGradient></defs>
<path id="right-house-3-roof-2" d="M 1478 600 C 1508.5999999999999 578 1567.6600000000001 529.60000000000002 1613.2 512 L 1880.8 512 C 1926.3399999999999 529.60000000000002 1985.4000000000001 578 2016 600 L 2016 609 L 1478 609 Z " fill="url(#right-house-3-roof-gradient-1)" fill-rule="nonzero"/>
<path id="right-house-3-roof-3" d="M 1615.8686829268293 514.90999999999997 L 1491.1219512195121 609 M 1622.5933658536585 514.90999999999997 L 1504.2439024390244 609 M 1629.3180487804877 514.90999999999997 L 1517.3658536585365 609 M 1636.042731707317 514.90999999999997 L 1530.4878048780488 609 M 1642.7674146341465 514.90999999999997 L 1543.6097560975609 609 M 1649.4920975609757 514.90999999999997 L 1556.7317073170732 609 M 1656.216780487805 514.90999999999997 L 1569.8536585365853 609 M 1662.9414634146342 514.90999999999997 L 1582.9756097560976 609 M 1669.6661463414634 514.90999999999997 L 1596.0975609756097 609 M 1676.3908292682927 514.90999999999997 L 1609.219512195122 609 M 1683.1155121951219 514.90999999999997 L 1622.3414634146341 609 M 1689.8401951219512 514.90999999999997 L 1635.4634146341464 609 M 1696.5648780487804 514.90999999999997 L 1648.5853658536585 609 M 1703.2895609756099 514.90999999999997 L 1661.7073170731708 609 M 1710.0142439024391 514.90999999999997 L 1674.8292682926829 609 M 1716.7389268292684 514.90999999999997 L 1687.9512195121952 609 M 1723.4636097560976 514.90999999999997 L 1701.0731707317073 609 M 1730.1882926829269 514.90999999999997 L 1714.1951219512196 609 M 1736.9129756097561 514.90999999999997 L 1727.3170731707316 609 M 1743.6376585365854 514.90999999999997 L 1740.439024390244 609 M 1750.3623414634146 514.90999999999997 L 1753.560975609756 609 M 1757.0870243902441 514.90999999999997 L 1766.6829268292684 609 M 1763.8117073170733 514.90999999999997 L 1779.8048780487804 609 M 1770.5363902439026 514.90999999999997 L 1792.9268292682927 609 M 1777.2610731707318 514.90999999999997 L 1806.0487804878048 609 M 1783.9857560975611 514.90999999999997 L 1819.1707317073171 609 M 1790.7104390243903 514.90999999999997 L 1832.2926829268292 609 M 1797.4351219512196 514.90999999999997 L 1845.4146341463415 609 M 1804.1598048780488 514.90999999999997 L 1858.5365853658536 609 M 1810.8844878048781 514.90999999999997 L 1871.6585365853657 609 M 1817.6091707317073 514.90999999999997 L 1884.780487804878 609 M 1824.3338536585366 514.90999999999997 L 1897.9024390243903 609 M 1831.058536585366 514.90999999999997 L 1911.0243902439024 609 M 1837.7832195121953 514.90999999999997 L 1924.1463414634145 609 M 1844.5079024390245 514.90999999999997 L 1937.2682926829268 609 M 1851.2325853658538 514.90999999999997 L 1950.3902439024391 609 M 1857.957268292683 514.90999999999997 L 1963.5121951219512 609 M 1864.6819512195123 514.90999999999997 L 1976.6341463414635 609 M 1871.4066341463415 514.90999999999997 L 1989.7560975609756 609 M 1878.1313170731707 514.90999999999997 L 2002.8780487804879 609 " fill="none" stroke="rgb(36.000001430511475%,72.000002861022949%,56.000000238418579%)" stroke-opacity="0.10000000000000001" stroke-width="1" stroke-linecap="round" stroke-linejoin="round"/>
<path id="right-house-3-roof-4" d="M 1607.2 509 L 1886.8 509 C 1926.3399999999999 529.60000000000002 1985.4000000000001 578 2016 600 " fill="none" stroke="rgb(36.000001430511475%,72.000002861022949%,56.000000238418579%)" stroke-opacity="0.55000000000000004" stroke-width="1.6000000000000001" stroke-linecap="round" stroke-linejoin="round"/>
<path id="right-house-3-roof-5" d="M 1605.2 512 L 1888.8 512 " fill="none" stroke="rgb(1.7999999225139618%,7.0000000298023224%,5.4000001400709152%)" stroke-opacity="1" stroke-width="6" stroke-linecap="round" stroke-linejoin="round"/>
</g>
<g id="right-house-3-eaves" data-name="right-house-3-eaves">
<path id="right-house-3-eaves-1" d="M 1468 770 L 1992 770 L 1992 786 L 1460 786 Z " fill="rgb(1.7999999225139618%,7.0000000298023224%,5.4000001400709152%)" fill-opacity="1" fill-rule="nonzero"/>
<path id="right-house-3-eaves-2" d="M 1468 770 L 1992 770 " fill="none" stroke="rgb(36.000001430511475%,72.000002861022949%,56.000000238418579%)" stroke-opacity="0.40000000000000002" stroke-width="1.3999999999999999" stroke-linecap="round" stroke-linejoin="round"/>
</g>
<g id="near-house-lattice" data-name="near-house-lattice">
<path id="near-house-lattice-1" d="M 155.33333333333334 312 L 155.33333333333334 508 M 214.66666666666669 312 L 214.66666666666669 508 M 96 361 L 274 361 M 96 410 L 274 410 M 96 459 L 274 459 " fill="none" stroke="rgb(1.2000000104308128%,2.9999999329447746%,2.4000000208616257%)" stroke-opacity="1" stroke-width="1.6000000000000001" stroke-linecap="round" stroke-linejoin="round"/>
<path id="near-house-lattice-2" d="M 96 312 L 274 312 L 274 508 L 96 508 Z " fill="none" stroke="rgb(1.2000000104308128%,2.9999999329447746%,2.4000000208616257%)" stroke-opacity="1" stroke-width="3.5200000000000005" stroke-linecap="round" stroke-linejoin="round"/>
<path id="near-house-lattice-3" d="M 336 312 L 336 405 M 284 358.5 L 388 358.5 " fill="none" stroke="rgb(1.2000000104308128%,2.9999999329447746%,2.4000000208616257%)" stroke-opacity="1" stroke-width="1.6000000000000001" stroke-linecap="round" stroke-linejoin="round"/>
<path id="near-house-lattice-4" d="M 284 312 L 388 312 L 388 405 L 284 405 Z " fill="none" stroke="rgb(1.2000000104308128%,2.9999999329447746%,2.4000000208616257%)" stroke-opacity="1" stroke-width="3.5200000000000005" stroke-linecap="round" stroke-linejoin="round"/>
<path id="near-house-lattice-5" d="M 336 415 L 336 508 M 284 461.5 L 388 461.5 " fill="none" stroke="rgb(1.2000000104308128%,2.9999999329447746%,2.4000000208616257%)" stroke-opacity="1" stroke-width="1.6000000000000001" stroke-linecap="round" stroke-linejoin="round"/>
<path id="near-house-lattice-6" d="M 284 415 L 388 415 L 388 508 L 284 508 Z " fill="none" stroke="rgb(1.2000000104308128%,2.9999999329447746%,2.4000000208616257%)" stroke-opacity="1" stroke-width="3.5200000000000005" stroke-linecap="round" stroke-linejoin="round"/>
<path id="near-house-lattice-7" d="M 446 312 L 446 508 M 398 361 L 494 361 M 398 410 L 494 410 M 398 459 L 494 459 " fill="none" stroke="rgb(1.2000000104308128%,2.9999999329447746%,2.4000000208616257%)" stroke-opacity="1" stroke-width="1.6000000000000001" stroke-linecap="round" stroke-linejoin="round"/>
<path id="near-house-lattice-8" d="M 398 312 L 494 312 L 494 508 L 398 508 Z " fill="none" stroke="rgb(1.2000000104308128%,2.9999999329447746%,2.4000000208616257%)" stroke-opacity="1" stroke-width="3.5200000000000005" stroke-linecap="round" stroke-linejoin="round"/>
</g>
<g id="izakaya-lattice" data-name="izakaya-lattice">
<path id="izakaya-lattice-1" d="M 1574 640 L 1574 736 M 1606 640 L 1606 736 M 1542 672 L 1638 672 M 1542 704 L 1638 704 " fill="none" stroke="rgb(1.2000000104308128%,2.9999999329447746%,2.4000000208616257%)" stroke-opacity="1" stroke-width="1.3" stroke-linecap="round" stroke-linejoin="round"/>
<path id="izakaya-lattice-2" d="M 1542 640 L 1638 640 L 1638 736 L 1542 736 Z " fill="none" stroke="rgb(1.2000000104308128%,2.9999999329447746%,2.4000000208616257%)" stroke-opacity="1" stroke-width="2.8600000000000003" stroke-linecap="round" stroke-linejoin="round"/>
<path id="izakaya-lattice-3" d="M 1678 640 L 1678 736 M 1710 640 L 1710 736 M 1646 672 L 1742 672 M 1646 704 L 1742 704 " fill="none" stroke="rgb(1.2000000104308128%,2.9999999329447746%,2.4000000208616257%)" stroke-opacity="1" stroke-width="1.3" stroke-linecap="round" stroke-linejoin="round"/>
<path id="izakaya-lattice-4" d="M 1646 640 L 1742 640 L 1742 736 L 1646 736 Z " fill="none" stroke="rgb(1.2000000104308128%,2.9999999329447746%,2.4000000208616257%)" stroke-opacity="1" stroke-width="2.8600000000000003" stroke-linecap="round" stroke-linejoin="round"/>
<path id="izakaya-lattice-5" d="M 1804 640 L 1804 736 M 1774 672 L 1834 672 M 1774 704 L 1834 704 " fill="none" stroke="rgb(1.2000000104308128%,2.9999999329447746%,2.4000000208616257%)" stroke-opacity="1" stroke-width="1.3" stroke-linecap="round" stroke-linejoin="round"/>
<path id="izakaya-lattice-6" d="M 1774 640 L 1834 640 L 1834 736 L 1774 736 Z " fill="none" stroke="rgb(1.2000000104308128%,2.9999999329447746%,2.4000000208616257%)" stroke-opacity="1" stroke-width="2.8600000000000003" stroke-linecap="round" stroke-linejoin="round"/>
<path id="izakaya-lattice-7" d="M 1878.6666666666667 640 L 1878.6666666666667 736 M 1915.3333333333333 640 L 1915.3333333333333 736 M 1842 672 L 1952 672 M 1842 704 L 1952 704 " fill="none" stroke="rgb(1.2000000104308128%,2.9999999329447746%,2.4000000208616257%)" stroke-opacity="1" stroke-width="1.3" stroke-linecap="round" stroke-linejoin="round"/>
<path id="izakaya-lattice-8" d="M 1842 640 L 1952 640 L 1952 736 L 1842 736 Z " fill="none" stroke="rgb(1.2000000104308128%,2.9999999329447746%,2.4000000208616257%)" stroke-opacity="1" stroke-width="2.8600000000000003" stroke-linecap="round" stroke-linejoin="round"/>
</g>
<g id="izakaya-counter" data-name="izakaya-counter">
<path id="izakaya-counter-1" d="M 1570 904 L 1764 904 " fill="none" stroke="rgb(1.2000000104308128%,2.9999999329447746%,2.4000000208616257%)" stroke-opacity="1" stroke-width="5" stroke-linecap="round" stroke-linejoin="round"/>
</g>
<g id="laundry-line" data-name="laundry-line">
<path id="laundry-line-1" d="M 1256 788 L 1412 788 " fill="none" stroke="rgb(1.2000000104308128%,2.9999999329447746%,2.4000000208616257%)" stroke-opacity="1" stroke-width="1.2" stroke-linecap="round" stroke-linejoin="round"/>
</g>
<g id="near-house-lamp-hanger" data-name="near-house-lamp-hanger">
<rect id="near-house-lamp-hanger-1" x="214" y="648" width="20" height="4" fill="rgb(38.363999128341675%,31.499996781349182%,17.447999119758606%)" fill-opacity="1"/>
<path id="near-house-lamp-hanger-2" d="M 270 640 L 270 694 " fill="none" stroke="rgb(38.363999128341675%,31.499996781349182%,17.447999119758606%)" stroke-opacity="1" stroke-width="1.5" stroke-linecap="round" stroke-linejoin="round"/>
</g>
<g id="near-house-deck" data-name="near-house-deck">
<rect id="near-house-deck-1" x="214" y="890" width="118" height="9" fill="rgb(38.363999128341675%,31.499996781349182%,17.447999119758606%)" fill-opacity="0.90000000000000002"/>
<rect id="near-house-deck-2" x="224" y="899" width="7" height="34" fill="rgb(38.363999128341675%,31.499996781349182%,17.447999119758606%)" fill-opacity="0.90000000000000002"/>
<rect id="near-house-deck-3" x="322" y="899" width="7" height="34" fill="rgb(38.363999128341675%,31.499996781349182%,17.447999119758606%)" fill-opacity="0.90000000000000002"/>
<rect id="near-house-deck-4" x="214" y="934" width="256" height="34" fill="rgb(38.363999128341675%,31.499996781349182%,17.447999119758606%)" fill-opacity="0.55000000000000004"/>
<path id="near-house-deck-5" d="M 114.66666666666666 640 L 114.66666666666666 968 M 159.33333333333331 640 L 159.33333333333331 968 M 70 694.66666666666663 L 204 694.66666666666663 M 70 749.33333333333337 L 204 749.33333333333337 M 70 804 L 204 804 M 70 858.66666666666663 L 204 858.66666666666663 M 70 913.33333333333326 L 204 913.33333333333326 " fill="none" stroke="rgb(1.2000000104308128%,2.9999999329447746%,2.4000000208616257%)" stroke-opacity="1" stroke-width="1.6000000000000001" stroke-linecap="round" stroke-linejoin="round"/>
<path id="near-house-deck-6" d="M 70 640 L 204 640 L 204 968 L 70 968 Z " fill="none" stroke="rgb(1.2000000104308128%,2.9999999329447746%,2.4000000208616257%)" stroke-opacity="1" stroke-width="3.5200000000000005" stroke-linecap="round" stroke-linejoin="round"/>
<path id="near-house-deck-7" d="M 387.33333333333331 640 L 387.33333333333331 968 M 428.66666666666669 640 L 428.66666666666669 968 M 346 694.66666666666663 L 470 694.66666666666663 M 346 749.33333333333337 L 470 749.33333333333337 M 346 804 L 470 804 M 346 858.66666666666663 L 470 858.66666666666663 M 346 913.33333333333326 L 470 913.33333333333326 " fill="none" stroke="rgb(1.2000000104308128%,2.9999999329447746%,2.4000000208616257%)" stroke-opacity="1" stroke-width="1.6000000000000001" stroke-linecap="round" stroke-linejoin="round"/>
<path id="near-house-deck-8" d="M 346 640 L 470 640 L 470 968 L 346 968 Z " fill="none" stroke="rgb(1.2000000104308128%,2.9999999329447746%,2.4000000208616257%)" stroke-opacity="1" stroke-width="3.5200000000000005" stroke-linecap="round" stroke-linejoin="round"/>
<rect id="near-house-deck-9" x="-80" y="968" width="720" height="14" fill="rgb(1.2000000104308128%,2.9999999329447746%,2.4000000208616257%)" fill-opacity="1"/>
<rect id="near-house-deck-10" x="-80" y="982" width="640" height="98" fill="rgb(0.8999999612569809%,2.8000000864267349%,2.3000000044703484%)" fill-opacity="1"/>
<path id="near-house-deck-11" d="M -80 968 L 640 968 " fill="none" stroke="rgb(36.000001430511475%,72.000002861022949%,56.000000238418579%)" stroke-opacity="0.29999999999999999" stroke-width="1.2" stroke-linecap="round" stroke-linejoin="round"/>
</g>
<g id="street-railing" data-name="street-railing">
<path id="street-railing-1" d="M 575 936 L 575 864 " fill="none" stroke="rgb(1.2000000104308128%,2.9999999329447746%,2.4000000208616257%)" stroke-opacity="1" stroke-width="5" stroke-linecap="round" stroke-linejoin="round"/>
<path id="street-railing-2" d="M 637 936 L 637 864 " fill="none" stroke="rgb(1.2000000104308128%,2.9999999329447746%,2.4000000208616257%)" stroke-opacity="1" stroke-width="5" stroke-linecap="round" stroke-linejoin="round"/>
<path id="street-railing-3" d="M 699 936 L 699 864 " fill="none" stroke="rgb(1.2000000104308128%,2.9999999329447746%,2.4000000208616257%)" stroke-opacity="1" stroke-width="5" stroke-linecap="round" stroke-linejoin="round"/>
<path id="street-railing-4" d="M 761 936 L 761 864 " fill="none" stroke="rgb(1.2000000104308128%,2.9999999329447746%,2.4000000208616257%)" stroke-opacity="1" stroke-width="5" stroke-linecap="round" stroke-linejoin="round"/>
<path id="street-railing-5" d="M 823 936 L 823 864 " fill="none" stroke="rgb(1.2000000104308128%,2.9999999329447746%,2.4000000208616257%)" stroke-opacity="1" stroke-width="5" stroke-linecap="round" stroke-linejoin="round"/>
<path id="street-railing-6" d="M 885 936 L 885 864 " fill="none" stroke="rgb(1.2000000104308128%,2.9999999329447746%,2.4000000208616257%)" stroke-opacity="1" stroke-width="5" stroke-linecap="round" stroke-linejoin="round"/>
<path id="street-railing-7" d="M 947 936 L 947 864 " fill="none" stroke="rgb(1.2000000104308128%,2.9999999329447746%,2.4000000208616257%)" stroke-opacity="1" stroke-width="5" stroke-linecap="round" stroke-linejoin="round"/>
<path id="street-railing-8" d="M 1009 936 L 1009 864 " fill="none" stroke="rgb(1.2000000104308128%,2.9999999329447746%,2.4000000208616257%)" stroke-opacity="1" stroke-width="5" stroke-linecap="round" stroke-linejoin="round"/>
<path id="street-railing-9" d="M 1071 936 L 1071 864 " fill="none" stroke="rgb(1.2000000104308128%,2.9999999329447746%,2.4000000208616257%)" stroke-opacity="1" stroke-width="5" stroke-linecap="round" stroke-linejoin="round"/>
<path id="street-railing-10" d="M 1133 936 L 1133 864 " fill="none" stroke="rgb(1.2000000104308128%,2.9999999329447746%,2.4000000208616257%)" stroke-opacity="1" stroke-width="5" stroke-linecap="round" stroke-linejoin="round"/>
<path id="street-railing-11" d="M 1195 936 L 1195 864 " fill="none" stroke="rgb(1.2000000104308128%,2.9999999329447746%,2.4000000208616257%)" stroke-opacity="1" stroke-width="5" stroke-linecap="round" stroke-linejoin="round"/>
<path id="street-railing-12" d="M 1257 936 L 1257 864 " fill="none" stroke="rgb(1.2000000104308128%,2.9999999329447746%,2.4000000208616257%)" stroke-opacity="1" stroke-width="5" stroke-linecap="round" stroke-linejoin="round"/>
<path id="street-railing-13" d="M 575 866 L 1262 866 " fill="none" stroke="rgb(1.2000000104308128%,2.9999999329447746%,2.4000000208616257%)" stroke-opacity="1" stroke-width="5" stroke-linecap="round" stroke-linejoin="round"/>
<path id="street-railing-14" d="M 575 896 L 1262 896 " fill="none" stroke="rgb(1.2000000104308128%,2.9999999329447746%,2.4000000208616257%)" stroke-opacity="1" stroke-width="3" stroke-linecap="round" stroke-linejoin="round"/>
<path id="street-railing-15" d="M 575 863 L 1262 863 " fill="none" stroke="rgb(62.000000476837158%,94.999998807907104%,77.999997138977051%)" stroke-opacity="0.5" stroke-width="1" stroke-linecap="round" stroke-linejoin="round"/>
</g>
<g id="yatai-frame" data-name="yatai-frame">
<rect id="yatai-frame-1" x="770" y="858" width="178" height="62" fill="rgb(1.2000000104308128%,2.9999999329447746%,2.4000000208616257%)" fill-opacity="1"/>
<circle id="yatai-frame-2" cx="804" cy="918" r="19" fill="rgb(1.2000000104308128%,2.9999999329447746%,2.4000000208616257%)" fill-opacity="1"/>
<circle id="yatai-frame-3" cx="916" cy="918" r="19" fill="rgb(1.2000000104308128%,2.9999999329447746%,2.4000000208616257%)" fill-opacity="1"/>
<path id="yatai-frame-4" d="M 776 860 L 776 742 " fill="none" stroke="rgb(1.2000000104308128%,2.9999999329447746%,2.4000000208616257%)" stroke-opacity="1" stroke-width="5" stroke-linecap="round" stroke-linejoin="round"/>
<path id="yatai-frame-5" d="M 942 860 L 942 742 " fill="none" stroke="rgb(1.2000000104308128%,2.9999999329447746%,2.4000000208616257%)" stroke-opacity="1" stroke-width="5" stroke-linecap="round" stroke-linejoin="round"/>
<path id="yatai-frame-6" d="M 748 748 C 810 716 908 716 970 748 L 970 757 L 748 757 Z " fill="rgb(1.2000000104308128%,2.9999999329447746%,2.4000000208616257%)" fill-opacity="1" fill-rule="nonzero"/>
<path id="yatai-frame-7" d="M 748 748 C 810 716 908 716 970 748 " fill="none" stroke="rgb(62.000000476837158%,94.999998807907104%,77.999997138977051%)" stroke-opacity="0.45000000000000001" stroke-width="1.2" stroke-linecap="round" stroke-linejoin="round"/>
</g>
<g id="near-house-mask" data-name="near-house-mask">
<rect id="near-house-mask-1" x="96" y="312" width="178" height="196" fill="rgb(100%,100%,100%)" fill-opacity="1"/>
<rect id="near-house-mask-2" x="284" y="312" width="104" height="93" fill="rgb(100%,100%,100%)" fill-opacity="1"/>
<rect id="near-house-mask-3" x="284" y="415" width="104" height="93" fill="rgb(100%,100%,100%)" fill-opacity="1"/>
<rect id="near-house-mask-4" x="398" y="312" width="96" height="196" fill="rgb(100%,100%,100%)" fill-opacity="1"/>
</g>
<g id="shamisen-mask" data-name="shamisen-mask">
<rect id="shamisen-mask-1" x="1542" y="640" width="96" height="96" fill="rgb(100%,100%,100%)" fill-opacity="1"/>
</g>
<g id="sign-glyph-0" data-name="sign-glyph-0">
<path id="sign-glyph-0-1" d="M 0.233 -0.695 L 0.751 -0.695 L 0.751 -0.627 L 0.233 -0.627 L 0.233 -0.695 Z M 0.288 -0.249 L 0.288 0.09 L 0.403 0.09 L 0.403 0.06 L 0.743 0.06 L 0.743 0.089 L 0.863 0.089 L 0.863 -0.249 L 0.629 -0.249 L 0.629 -0.331 L 0.928 -0.331 L 0.928 -0.438 L 0.629 -0.438 L 0.629 -0.522 L 0.872 -0.522 L 0.872 -0.8 L 0.112 -0.8 L 0.112 -0.506 C 0.112 -0.347 0.104 -0.122 0 0.03 C 0.03 0.042 0.084 0.073 0.107 0.093 C 0.217 -0.071 0.233 -0.331 0.233 -0.506 L 0.233 -0.522 L 0.508 -0.522 L 0.508 -0.438 L 0.244 -0.438 L 0.244 -0.331 L 0.508 -0.331 L 0.508 -0.249 L 0.288 -0.249 Z M 0.403 -0.044 L 0.403 -0.144 L 0.743 -0.144 L 0.743 -0.044 L 0.403 -0.044 Z" fill="rgb(100%,100%,100%)" fill-opacity="1" fill-rule="nonzero"/>
</g>
<g id="sign-glyph-1" data-name="sign-glyph-1">
<path id="sign-glyph-1-1" d="M 0 -0.478 C 0.053 -0.449 0.13 -0.407 0.167 -0.381 L 0.237 -0.48 C 0.197 -0.505 0.118 -0.543 0.067 -0.568 L 0 -0.478 Z M 0.017 0.007 L 0.125 0.074 C 0.173 -0.024 0.224 -0.14 0.265 -0.248 L 0.169 -0.316 C 0.122 -0.198 0.061 -0.071 0.017 0.007 Z M 0.033 -0.745 C 0.085 -0.715 0.161 -0.67 0.197 -0.643 L 0.268 -0.74 L 0.268 -0.686 L 0.456 -0.686 L 0.456 -0.594 L 0.293 -0.594 L 0.293 0.089 L 0.402 0.089 L 0.402 0.046 L 0.793 0.046 L 0.793 0.088 L 0.908 0.088 L 0.908 -0.594 L 0.734 -0.594 L 0.734 -0.686 L 0.934 -0.686 L 0.934 -0.795 L 0.268 -0.795 L 0.268 -0.742 C 0.229 -0.767 0.152 -0.807 0.102 -0.833 L 0.033 -0.745 Z M 0.561 -0.686 L 0.627 -0.686 L 0.627 -0.594 L 0.561 -0.594 L 0.561 -0.686 Z M 0.402 -0.129 L 0.793 -0.129 L 0.793 -0.057 L 0.402 -0.057 L 0.402 -0.129 Z M 0.402 -0.23 L 0.402 -0.3 C 0.418 -0.286 0.434 -0.27 0.442 -0.26 C 0.542 -0.312 0.565 -0.393 0.565 -0.464 L 0.565 -0.49 L 0.622 -0.49 L 0.622 -0.408 C 0.622 -0.322 0.64 -0.295 0.717 -0.295 C 0.733 -0.295 0.775 -0.295 0.79 -0.295 L 0.793 -0.295 L 0.793 -0.23 L 0.402 -0.23 Z M 0.402 -0.34 L 0.402 -0.49 L 0.475 -0.49 L 0.475 -0.466 C 0.475 -0.424 0.464 -0.379 0.402 -0.34 Z M 0.713 -0.49 L 0.793 -0.49 L 0.793 -0.392 C 0.791 -0.39 0.786 -0.389 0.777 -0.389 C 0.769 -0.389 0.738 -0.389 0.732 -0.389 C 0.715 -0.389 0.713 -0.39 0.713 -0.41 L 0.713 -0.49 Z" fill="rgb(100%,100%,100%)" fill-opacity="1" fill-rule="nonzero"/>
</g>
<g id="sign-glyph-2" data-name="sign-glyph-2">
<path id="sign-glyph-2-1" d="M 0.228 -0.706 L 0.75 -0.706 L 0.75 -0.644 L 0.228 -0.644 L 0.228 -0.706 Z M 0.234 -0.333 L 0.239 -0.24 L 0.491 -0.25 L 0.491 -0.193 L 0.255 -0.193 L 0.255 -0.098 L 0.491 -0.098 L 0.491 -0.029 L 0.187 -0.029 L 0.187 0.066 L 0.92 0.066 L 0.92 -0.029 L 0.607 -0.029 L 0.607 -0.098 L 0.849 -0.098 L 0.849 -0.193 L 0.607 -0.193 L 0.607 -0.255 L 0.76 -0.262 C 0.778 -0.243 0.794 -0.226 0.806 -0.211 L 0.906 -0.274 C 0.872 -0.314 0.808 -0.366 0.75 -0.409 L 0.898 -0.409 L 0.898 -0.504 L 0.228 -0.504 L 0.228 -0.513 L 0.228 -0.547 L 0.871 -0.547 L 0.871 -0.803 L 0.107 -0.803 L 0.107 -0.513 C 0.107 -0.353 0.1 -0.126 0 0.028 C 0.03 0.04 0.084 0.07 0.107 0.09 C 0.194 -0.046 0.219 -0.245 0.226 -0.409 L 0.382 -0.409 C 0.368 -0.384 0.354 -0.358 0.339 -0.336 L 0.234 -0.333 Z M 0.614 -0.384 L 0.664 -0.346 L 0.466 -0.34 L 0.515 -0.409 L 0.656 -0.409 L 0.614 -0.384 Z" fill="rgb(100%,100%,100%)" fill-opacity="1" fill-rule="nonzero"/>
</g>
<g id="sign-glyph-3" data-name="sign-glyph-3">
<path id="sign-glyph-3-1" d="M 0.178 -0.805 L 0.146 -0.685 C 0.224 -0.665 0.447 -0.618 0.548 -0.605 L 0.578 -0.727 C 0.491 -0.737 0.273 -0.775 0.178 -0.805 Z M 0.184 -0.604 L 0.05 -0.622 C 0.043 -0.498 0.02 -0.303 0 -0.205 L 0.115 -0.176 C 0.124 -0.196 0.134 -0.212 0.152 -0.234 C 0.215 -0.31 0.317 -0.352 0.43 -0.352 C 0.517 -0.352 0.579 -0.304 0.579 -0.239 C 0.579 -0.112 0.42 -0.039 0.12 -0.08 L 0.158 0.051 C 0.574 0.086 0.718 -0.054 0.718 -0.236 C 0.718 -0.357 0.616 -0.465 0.441 -0.465 C 0.336 -0.465 0.237 -0.436 0.146 -0.37 C 0.153 -0.427 0.171 -0.549 0.184 -0.604 Z" fill="rgb(100%,100%,100%)" fill-opacity="1" fill-rule="nonzero"/>
</g>
<g id="sign-glyph-4" data-name="sign-glyph-4">
<path id="sign-glyph-4-1" d="M 0 -0.463 L 0 -0.306 C 0.037 -0.308 0.104 -0.311 0.161 -0.311 C 0.278 -0.311 0.608 -0.311 0.698 -0.311 C 0.74 -0.311 0.791 -0.307 0.815 -0.306 L 0.815 -0.463 C 0.789 -0.461 0.745 -0.457 0.698 -0.457 C 0.608 -0.457 0.279 -0.457 0.161 -0.457 C 0.109 -0.457 0.036 -0.46 0 -0.463 Z" fill="rgb(100%,100%,100%)" fill-opacity="1" fill-rule="nonzero"/>
</g>
<g id="sign-glyph-5" data-name="sign-glyph-5">
<path id="sign-glyph-5-1" d="M 0.449 -0.541 C 0.426 -0.467 0.395 -0.39 0.359 -0.326 C 0.336 -0.365 0.311 -0.423 0.288 -0.485 C 0.335 -0.513 0.388 -0.534 0.449 -0.541 Z M 0.212 -0.751 L 0.081 -0.71 C 0.099 -0.674 0.11 -0.642 0.121 -0.606 L 0.148 -0.525 C 0.057 -0.445 0 -0.323 0 -0.209 C 0 -0.08 0.076 -0.01 0.159 -0.01 C 0.233 -0.01 0.289 -0.043 0.356 -0.116 L 0.39 -0.077 L 0.491 -0.157 C 0.472 -0.175 0.454 -0.196 0.436 -0.217 C 0.493 -0.304 0.537 -0.419 0.572 -0.535 C 0.672 -0.508 0.734 -0.425 0.734 -0.314 C 0.734 -0.189 0.647 -0.076 0.427 -0.058 L 0.504 0.058 C 0.712 0.026 0.863 -0.095 0.863 -0.307 C 0.863 -0.482 0.759 -0.609 0.602 -0.645 L 0.611 -0.683 C 0.617 -0.708 0.626 -0.757 0.634 -0.784 L 0.496 -0.797 C 0.496 -0.774 0.493 -0.731 0.488 -0.702 L 0.479 -0.654 C 0.402 -0.651 0.328 -0.632 0.252 -0.594 L 0.234 -0.655 C 0.226 -0.685 0.218 -0.718 0.212 -0.751 Z M 0.284 -0.215 C 0.247 -0.17 0.21 -0.139 0.174 -0.139 C 0.138 -0.139 0.117 -0.17 0.117 -0.219 C 0.117 -0.281 0.144 -0.352 0.191 -0.407 C 0.22 -0.332 0.252 -0.264 0.284 -0.215 Z" fill="rgb(100%,100%,100%)" fill-opacity="1" fill-rule="nonzero"/>
</g>
<g id="sign-glyph-6" data-name="sign-glyph-6">
<path id="sign-glyph-6-1" d="M 0.523 -0.743 L 0.381 -0.8 C 0.364 -0.758 0.345 -0.725 0.332 -0.698 C 0.279 -0.603 0.074 -0.195 0 0.005 L 0.141 0.053 C 0.156 0 0.191 -0.112 0.217 -0.17 C 0.253 -0.251 0.309 -0.321 0.377 -0.321 C 0.413 -0.321 0.433 -0.3 0.436 -0.265 C 0.439 -0.224 0.438 -0.142 0.442 -0.089 C 0.446 -0.016 0.498 0.05 0.609 0.05 C 0.762 0.05 0.855 -0.064 0.907 -0.235 L 0.799 -0.323 C 0.77 -0.199 0.717 -0.087 0.63 -0.087 C 0.597 -0.087 0.569 -0.102 0.565 -0.141 C 0.56 -0.183 0.563 -0.263 0.561 -0.308 C 0.557 -0.391 0.512 -0.438 0.437 -0.438 C 0.399 -0.438 0.359 -0.429 0.322 -0.408 C 0.372 -0.496 0.442 -0.624 0.491 -0.696 C 0.502 -0.712 0.513 -0.729 0.523 -0.743 Z" fill="rgb(100%,100%,100%)" fill-opacity="1" fill-rule="nonzero"/>
</g>
</svg>
